<svg width="37" height="51" viewBox="0 0 37 51" fill="none" xmlns="http://www.w3.org/2000/svg">
<path d="M10.6104 0.0827808C12.891 4.23926 17.2566 12.9359 16.4747 14.4706C15.6928 16.0053 12.2394 18.3073 10.6104 19.2665C12.2394 23.7427 17.0612 33.6544 23.3165 37.4911C27.2261 35.1891 29.5066 35.253 30.1582 35.5727L37 44.2054C36.0226 46.7633 32.6995 51.6871 27.2261 50.9197C21.7527 50.1524 17.7779 46.7633 16.4747 45.1646C11.9136 40.0489 2.40027 28.4747 0.836441 23.1033C-1.11835 16.389 0.836282 8.7155 1.81383 7.75628C2.79139 6.79707 7.67804 -0.876407 10.6104 0.0827808Z" fill="#B39149"/>
</svg>
