<svg width="38" height="38" viewBox="0 0 38 38" fill="none" xmlns="http://www.w3.org/2000/svg">
<circle cx="18.9453" cy="18.9453" r="18.9453" fill="#D27E00"/>
<path d="M18.0098 21.625H20.6348L22.1895 23.6406L23.2988 24.9531L25.9629 28.375H23.1504L21.3379 26.0781L20.5645 24.9844L18.0098 21.625ZM26.3457 19C26.3457 20.724 26.0228 22.2005 25.377 23.4297C24.7363 24.6536 23.8613 25.5911 22.752 26.2422C21.6478 26.8932 20.3952 27.2187 18.9941 27.2187C17.5931 27.2187 16.3379 26.8932 15.2285 26.2422C14.1243 25.5859 13.2493 24.6458 12.6035 23.4219C11.9629 22.1927 11.6426 20.7187 11.6426 19C11.6426 17.276 11.9629 15.8021 12.6035 14.5781C13.2493 13.349 14.1243 12.4089 15.2285 11.7578C16.3379 11.1068 17.5931 10.7812 18.9941 10.7812C20.3952 10.7812 21.6478 11.1068 22.752 11.7578C23.8613 12.4089 24.7363 13.349 25.377 14.5781C26.0228 15.8021 26.3457 17.276 26.3457 19ZM23.4316 19C23.4316 17.7865 23.2415 16.763 22.8613 15.9297C22.4863 15.0911 21.9655 14.4583 21.2988 14.0313C20.6322 13.599 19.8639 13.3828 18.9941 13.3828C18.1243 13.3828 17.3561 13.599 16.6895 14.0313C16.0228 14.4583 15.4993 15.0911 15.1191 15.9297C14.7441 16.763 14.5566 17.7865 14.5566 19C14.5566 20.2135 14.7441 21.2396 15.1191 22.0781C15.4993 22.9115 16.0228 23.5443 16.6895 23.9766C17.3561 24.4036 18.1243 24.6172 18.9941 24.6172C19.8639 24.6172 20.6322 24.4036 21.2988 23.9766C21.9655 23.5443 22.4863 22.9115 22.8613 22.0781C23.2415 21.2396 23.4316 20.2135 23.4316 19Z" fill="white"/>
</svg>
