<svg width="159" height="32" viewBox="0 0 159 32" fill="none" xmlns="http://www.w3.org/2000/svg">
<path d="M44.415 5.42929C44.3292 5.35776 44.2229 5.31894 44.1126 5.31894C44.086 5.31894 44.0615 5.32098 44.0349 5.32507L42.1569 5.63773C41.9301 5.67451 41.7646 5.87068 41.7646 6.1016V12.8288H34.0973V5.78894C34.0973 5.64999 34.036 5.5192 33.9318 5.43133C33.846 5.35981 33.7397 5.32098 33.6294 5.32098C33.6028 5.32098 33.5783 5.32302 33.5517 5.32711L31.6737 5.63977C31.4469 5.67655 31.2814 5.87273 31.2814 6.10364V23.9394C31.2814 24.0783 31.3427 24.2091 31.4469 24.297C31.5327 24.3685 31.639 24.4074 31.7493 24.4074C31.7759 24.4074 31.8004 24.4053 31.827 24.4012L33.705 24.0886C33.9318 24.0518 34.0973 23.8556 34.0973 23.6247V15.6448H41.7646V23.9373C41.7646 24.0763 41.8259 24.2071 41.9301 24.295C42.0159 24.3665 42.1222 24.4053 42.2325 24.4053C42.2591 24.4053 42.2836 24.4033 42.3102 24.3992L44.1882 24.0865C44.415 24.0497 44.5805 23.8536 44.5805 23.6226V5.78894C44.5805 5.64999 44.5192 5.5192 44.415 5.43133V5.42929Z" fill="white"/>
<path d="M53.6599 24.4032C51.8964 24.4032 50.3025 23.7289 49.1724 22.5028C47.9933 21.2235 47.37 19.4395 47.37 17.3388C47.37 15.2381 48.026 13.2988 49.2684 11.9889C50.4292 10.7628 52.0476 10.0885 53.8255 10.0885C57.5876 10.0885 60.1154 12.9269 60.1154 17.1529C60.1154 19.4559 59.4002 21.3625 58.0453 22.6683C56.8846 23.7881 55.3274 24.4053 53.662 24.4053L53.6599 24.4032ZM53.7539 12.5509C51.0299 12.5509 50.3045 15.516 50.3045 17.2673C50.3045 19.93 51.7677 21.9367 53.7069 21.9367C55.6462 21.9367 57.1809 19.9096 57.1809 17.2203C57.1809 15.6059 56.4657 12.5509 53.7539 12.5509Z" fill="white"/>
<path d="M67.6945 24.3808C64.0325 24.3808 64.0325 20.8823 64.0325 19.7338V12.8574H62.5305C62.271 12.8574 62.0605 12.647 62.0605 12.3874V10.863C62.0605 10.6034 62.271 10.393 62.5305 10.393H64.0325V8.53951C64.0325 8.34333 64.1551 8.16759 64.3391 8.10015L66.1067 7.44214C66.1598 7.42171 66.215 7.41353 66.2702 7.41353C66.3642 7.41353 66.4582 7.44214 66.5379 7.49732C66.6646 7.58519 66.7402 7.72823 66.7402 7.88354V10.395H69.736C69.9955 10.395 70.206 10.6055 70.206 10.865V12.3895C70.206 12.649 69.9955 12.8595 69.736 12.8595H66.7402V19.7829C66.7402 21.8244 67.811 21.8244 68.1645 21.8244C68.4874 21.8244 68.7592 21.7998 69.0003 21.7794C69.1801 21.7631 69.3375 21.7487 69.4785 21.7487C69.7217 21.7487 69.926 21.9367 69.9464 22.1799L70.0629 23.5879C70.0834 23.8229 69.924 24.0354 69.6951 24.0865C69.5541 24.1172 69.4294 24.1458 69.3109 24.1744C68.8062 24.2909 68.4077 24.3849 67.6945 24.3849V24.3808Z" fill="white"/>
<path d="M78.8479 24.3808C74.9407 24.3808 72.417 21.6629 72.417 17.4573C72.417 13.2518 74.955 10.0885 78.5884 10.0885C80.4847 10.0885 81.9888 10.8854 82.939 12.3935C83.9035 13.9262 84.0078 15.7061 84.0078 16.4009C84.0078 16.8525 83.9853 17.1856 83.9587 17.5166C83.9403 17.7618 83.736 17.9498 83.4908 17.9498H75.2697C75.4822 21.3666 77.7526 21.8918 79.1258 21.8918C80.6646 21.8918 81.5719 21.5709 82.3035 21.2705C82.3607 21.246 82.422 21.2358 82.4813 21.2358C82.5528 21.2358 82.6243 21.2521 82.6897 21.2848C82.8103 21.3441 82.9002 21.4544 82.9349 21.5852L83.3109 22.9932C83.3681 23.2098 83.2639 23.4387 83.0616 23.5368C82.4097 23.8515 80.9936 24.3808 78.8438 24.3808H78.8479ZM81.1346 15.5569C81.0876 14.8866 80.8955 13.8812 80.2232 13.1987C79.7695 12.7389 79.1585 12.5059 78.4024 12.5059C77.2335 12.5059 75.7969 13.3172 75.378 15.5569H81.1346Z" fill="white"/>
<path d="M87.9255 24.436C87.8152 24.436 87.7089 24.3971 87.6231 24.3256C87.5168 24.2357 87.4555 24.1049 87.4555 23.966V5.19225C87.4555 4.96338 87.619 4.76925 87.8438 4.73042L89.6359 4.41776C89.6625 4.41368 89.6891 4.41163 89.7177 4.41163C89.828 4.41163 89.9343 4.45046 90.0201 4.52198C90.1264 4.6119 90.1877 4.74268 90.1877 4.88164V23.6553C90.1877 23.8842 90.0242 24.0784 89.7994 24.1172L88.0073 24.4298C87.9807 24.4339 87.9541 24.436 87.9255 24.436Z" fill="white"/>
<path d="M97.2235 24.3808C96.1547 24.3808 95.3598 24.2888 94.3524 24.1723C94.1317 24.1478 93.8987 24.1192 93.6494 24.0926C93.4859 24.0742 93.3449 23.9721 93.2754 23.8249C93.206 23.6757 93.2203 23.502 93.3102 23.3672L94.2482 21.9592C94.336 21.8284 94.4832 21.7508 94.6385 21.7508C94.6569 21.7508 94.6773 21.7508 94.6977 21.7548C95.9197 21.9081 96.212 21.9449 97.293 21.9449C98.6008 21.9449 99.3814 21.3482 99.3814 20.3489C99.3814 19.5295 99.0504 18.9532 97.3052 18.2502C94.945 17.302 93.7495 15.939 93.7495 14.2C93.7495 11.8193 95.7031 10.0925 98.3965 10.0925C99.455 10.0925 100.225 10.1539 100.971 10.2111L101.366 10.2417C101.513 10.2519 101.648 10.3337 101.727 10.4583C101.807 10.583 101.823 10.7383 101.77 10.8773L101.206 12.3547C101.174 12.4405 101.116 12.5161 101.041 12.5693C100.916 12.6592 100.791 12.6592 100.751 12.6592C100.689 12.6592 100.591 12.651 100.356 12.6347C99.8964 12.5999 99.0422 12.5325 98.28 12.5325C97.2542 12.5325 96.59 13.0945 96.59 13.965C96.59 14.7477 97.0375 15.1543 98.6764 15.8573C100.324 16.5316 102.224 17.629 102.224 20.1384C102.224 22.6479 100.262 24.3869 97.2255 24.3869L97.2235 24.3808Z" fill="white"/>
<path d="M105.929 24.436C105.806 24.436 105.69 24.389 105.602 24.3032C105.51 24.2153 105.459 24.0927 105.459 23.966V6.08324C105.459 5.85233 105.626 5.65615 105.853 5.61937L107.801 5.30671C107.825 5.30262 107.85 5.30058 107.874 5.30058C107.985 5.30058 108.093 5.33941 108.179 5.41297C108.283 5.50289 108.344 5.63367 108.344 5.77059V21.8101C108.344 21.8101 115.261 21.5179 115.268 21.5179C115.388 21.5179 115.505 21.5649 115.593 21.6486C115.684 21.7365 115.738 21.8591 115.738 21.9879V23.6533C115.738 23.9067 115.537 24.1131 115.284 24.1233C115.284 24.1233 105.933 24.436 105.927 24.436H105.929Z" fill="white"/>
<path d="M121.797 24.4033C120.524 24.4033 119.443 23.9619 118.672 23.1302C117.979 22.3823 117.597 21.3748 117.597 20.2979C117.597 17.0875 120.291 15.2095 125.005 15.1155C124.952 13.7913 124.588 12.5305 122.573 12.5305C121.613 12.5305 120.46 12.79 119.326 13.2641C119.269 13.2886 119.206 13.3009 119.146 13.3009C119.04 13.3009 118.934 13.2641 118.848 13.1946C118.713 13.0843 118.652 12.9106 118.684 12.7389L118.997 11.1736C119.026 11.0285 119.122 10.9059 119.255 10.8426C120.411 10.2867 121.359 10.0905 122.878 10.0905C126.117 10.0905 127.901 12.0666 127.901 15.653V20.6044C127.901 21.8734 127.911 22.8093 127.931 23.6431C127.935 23.7698 127.886 23.8924 127.798 23.9823C127.711 24.0722 127.588 24.1233 127.463 24.1233H125.679C125.424 24.1233 125.215 23.919 125.209 23.6635L125.199 23.1629C124.31 23.9558 123.105 24.4053 121.799 24.4053L121.797 24.4033ZM125.036 17.486C121.925 17.5575 120.53 18.3606 120.53 20.0629C120.53 21.7651 121.744 21.9633 122.267 21.9633C123.977 21.9633 125.036 20.6473 125.036 19.4294V17.486Z" fill="white"/>
<path d="M137.476 24.4033C135.874 24.4033 134.621 23.8863 133.679 22.8277L133.628 23.8331C133.616 24.0824 133.41 24.2786 133.16 24.2786H131.47C131.342 24.2786 131.217 24.2255 131.129 24.1315C131.041 24.0375 130.994 23.9108 131.002 23.782C131.047 22.9708 131.096 21.5383 131.096 20.4838V5.28625C131.096 5.02672 131.307 4.81624 131.566 4.81624L133.514 4.40754C133.773 4.40754 133.984 4.61802 133.984 4.87755V11.566C134.93 10.6035 136.248 10.0885 137.809 10.0885C141.126 10.0885 143.441 12.9739 143.441 17.1059C143.441 19.3599 142.793 21.2542 141.565 22.5825C140.494 23.7412 139.005 24.4053 137.48 24.4053L137.476 24.4033ZM137.172 12.6224C135.263 12.6224 133.98 14.431 133.98 16.1189V18.6528C133.98 20.2325 135.147 21.8673 137.1 21.8673C139.61 21.8673 140.503 19.4437 140.503 17.1733C140.503 14.903 139.473 12.6204 137.17 12.6204L137.172 12.6224Z" fill="white"/>
<path d="M151.56 24.4032C149.797 24.4032 148.203 23.7289 147.073 22.5028C145.894 21.2235 145.27 19.4395 145.27 17.3388C145.27 15.2381 145.926 13.2988 147.169 11.9889C148.33 10.7628 149.948 10.0885 151.726 10.0885C155.488 10.0885 158.016 12.9269 158.016 17.1529C158.016 19.4559 157.301 21.3625 155.946 22.6683C154.785 23.7881 153.228 24.4053 151.562 24.4053L151.56 24.4032ZM151.654 12.5509C148.93 12.5509 148.205 15.516 148.205 17.2673C148.205 19.93 149.668 21.9367 151.607 21.9367C153.547 21.9367 155.081 19.9096 155.081 17.2203C155.081 15.6059 154.366 12.5509 151.654 12.5509Z" fill="white"/>
<path d="M14.4408 4.91024V11.2124C14.4408 11.2696 14.3958 11.3146 14.3386 11.3146H7.15158C7.09436 11.3146 7.04941 11.2696 7.04941 11.2124V5.0349C7.04941 4.9552 6.96154 4.90615 6.8941 4.94702L0.373263 8.94413C0.34261 8.96252 0.324219 8.99521 0.324219 9.032V31.5188C0.324219 31.5985 0.41209 31.6475 0.479525 31.6066L7.00241 27.6095C7.03306 27.5911 7.05145 27.5584 7.05145 27.5217V22.3332C7.05145 22.276 7.09641 22.231 7.15363 22.231H14.3406C14.3979 22.231 14.4428 22.276 14.4428 22.3332V27.397C14.4428 27.4767 14.5307 27.5258 14.5981 27.4849L21.121 23.4878C21.1517 23.4694 21.1701 23.4367 21.1701 23.3999V0.913139C21.1701 0.833442 21.0822 0.784398 21.0147 0.825268L14.4919 4.82237C14.4612 4.84076 14.4428 4.87346 14.4428 4.91024H14.4408ZM7.04941 18.2319V15.3158C7.04941 15.2586 7.09436 15.2136 7.15158 15.2136H14.3386C14.3958 15.2136 14.4408 15.2586 14.4408 15.3158V18.2319C14.4408 18.2891 14.3958 18.334 14.3386 18.334H7.15158C7.09436 18.334 7.04941 18.2891 7.04941 18.2319Z" fill="white"/>
</svg>
